<?xml version="1.0" encoding="UTF-8" standalone="no"?>
<!DOCTYPE svg PUBLIC "-//W3C//DTD SVG 20010904//EN"
              "http://www.w3.org/TR/2001/REC-SVG-20010904/DTD/svg10.dtd">

<svg xmlns="http://www.w3.org/2000/svg"
     width="8.88889in" height="5.55556in"
     viewBox="0 0 800 500">
  <path id="Selection"
        fill="#3995A3" stroke="#255D66" stroke-width="2"
        style="filter:url(#dropshadow)"
        d="M 441.00,266.00
           C 445.97,265.99 449.97,266.35 453.30,261.89
             455.73,258.64 458.19,247.44 459.42,243.00
             459.42,243.00 471.14,202.00 471.14,202.00
             479.42,173.96 496.13,153.48 518.00,134.73
             525.05,128.68 534.73,120.45 543.00,116.37
             557.12,109.41 576.26,109.18 591.00,114.00
             591.00,114.00 575.00,142.00 575.00,142.00
             567.71,140.53 561.52,138.09 554.00,138.00
             549.30,137.95 544.44,137.67 540.00,139.48
             525.71,145.32 518.81,167.28 514.86,181.00
             514.86,181.00 490.85,268.00 490.85,268.00
             490.85,268.00 477.13,318.00 477.13,318.00
             477.13,318.00 467.60,357.00 467.60,357.00
             466.61,361.94 464.50,372.31 465.33,377.00
             467.97,392.01 483.68,387.12 494.00,387.00
             494.00,387.00 499.00,387.00 499.00,387.00
             499.00,387.00 509.00,386.04 509.00,386.04
             509.00,386.04 521.00,386.04 521.00,386.04
             513.26,403.83 504.32,401.96 488.00,405.20
             488.00,405.20 450.00,412.80 450.00,412.80
             442.30,414.34 426.91,418.82 422.31,409.96
             418.41,402.43 423.47,383.20 425.35,375.00
             425.35,375.00 449.00,285.00 449.00,285.00
             449.00,285.00 414.00,286.09 414.00,286.09
             414.00,286.09 389.00,287.99 389.00,287.99
             389.00,287.99 374.00,288.99 374.00,288.99
             370.11,289.08 365.46,288.44 362.10,290.74
             356.88,294.32 355.20,303.26 353.33,309.00
             349.50,320.73 345.69,330.75 338.65,341.00
             327.83,356.76 306.23,377.61 291.00,389.35
             282.01,396.28 269.00,404.85 258.00,407.84
             251.87,409.51 247.18,409.66 241.00,410.09
             241.00,410.09 231.00,411.00 231.00,411.00
             231.00,411.00 203.00,409.00 203.00,409.00
             204.92,400.96 211.07,394.53 215.85,388.00
             218.45,384.45 220.93,380.32 225.00,378.31
             228.04,376.82 231.70,377.01 235.00,377.00
             255.80,376.97 278.01,380.08 293.56,362.91
             297.15,358.95 300.72,353.72 303.22,349.00
             309.60,336.95 312.98,323.01 317.02,310.00
             318.06,306.67 321.89,295.87 321.50,293.02
             320.82,287.96 315.92,288.05 312.00,288.00
             312.00,288.00 328.62,264.00 328.62,264.00
             328.62,264.00 339.88,223.00 339.88,223.00
             339.88,223.00 352.00,176.00 352.00,176.00
             336.32,178.07 327.67,175.05 312.00,181.06
             306.79,183.06 303.12,185.31 299.00,189.09
             283.54,203.31 282.97,214.37 283.00,234.00
             283.02,244.62 285.97,250.90 288.00,261.00
             288.00,261.00 251.00,273.00 251.00,273.00
             246.10,258.30 246.83,254.12 247.00,239.00
             247.12,228.64 250.16,219.19 254.76,210.00
             259.84,199.85 265.45,193.35 274.00,186.00
             313.45,152.08 359.73,156.00 408.00,156.00
             408.00,156.00 389.30,178.00 389.30,178.00
             389.30,178.00 381.12,208.00 381.12,208.00
             381.12,208.00 371.12,246.00 371.12,246.00
             371.12,246.00 366.00,266.00 366.00,266.00
             366.00,266.00 441.00,266.00 441.00,266.00 Z" />
  <filter id="dropshadow" height="130%">
    <feGaussianBlur in="SourceAlpha" stdDeviation="3"/> <!-- stdDeviation is how much to blur -->
    <feOffset dx="2" dy="2" result="offsetblur"/> <!-- how much to offset -->
    <feComponentTransfer>
      <feFuncA type="linear" slope="0.5"/> <!-- slope is the opacity of the shadow -->
    </feComponentTransfer>
    <feMerge>
      <feMergeNode/> <!-- this contains the offset blurred image -->
      <feMergeNode in="SourceGraphic"/> <!-- this contains the element that the filter is applied to -->
    </feMerge>
  </filter>
</svg>
