<?xml version="1.0" encoding="UTF-8" standalone="no"?>
<!DOCTYPE svg PUBLIC "-//W3C//DTD SVG 20010904//EN"
              "http://www.w3.org/TR/2001/REC-SVG-20010904/DTD/svg10.dtd">

<svg xmlns="http://www.w3.org/2000/svg"
     width="8.88889in" height="5.55556in"
     viewBox="0 0 640 400">
  <path id="Selection"
        fill="#3995A3" stroke="#255D66" stroke-width="2"
        style="filter:url(#dropshadow)"
        d="M 386.00,214.00
           C 388.59,213.99 392.29,214.35 394.28,212.40
             396.17,210.54 398.15,201.94 399.00,199.00
             399.00,199.00 408.29,166.00 408.29,166.00
             415.86,139.69 428.02,124.44 449.00,106.92
             464.41,94.06 470.82,89.76 491.00,90.00
             496.18,90.07 497.13,90.42 502.00,92.00
             502.00,92.00 490.00,112.00 490.00,112.00
             483.12,110.45 481.51,109.09 474.00,109.00
             469.75,108.95 464.91,108.70 461.00,110.57
             449.07,116.27 443.67,138.16 440.02,150.00
             440.02,150.00 413.13,248.00 413.13,248.00
             409.62,262.02 402.30,286.40 401.90,299.83
             401.68,307.21 405.71,311.08 413.00,311.82
             413.00,311.82 446.00,310.00 446.00,310.00
             439.87,321.90 434.68,320.07 423.00,322.40
             423.00,322.40 388.00,329.37 388.00,329.37
             380.59,331.19 369.68,334.00 369.04,323.00
             368.62,315.65 374.09,295.13 376.13,287.00
             376.13,287.00 392.00,227.00 392.00,227.00
             392.00,227.00 373.00,227.00 373.00,227.00
             373.00,227.00 341.00,229.00 341.00,229.00
             341.00,229.00 327.00,229.96 327.00,229.96
             324.64,230.07 321.32,229.74 319.27,231.02
             316.23,232.93 313.87,242.39 312.67,246.00
             308.73,257.80 305.94,266.09 297.91,276.00
             284.48,292.57 257.73,318.95 237.00,324.96
             226.33,328.06 206.15,327.47 195.00,326.00
             197.80,320.57 201.73,315.89 205.37,311.00
             206.82,309.06 209.35,305.20 211.32,304.02
             213.40,302.78 216.63,303.00 219.00,303.00
             240.79,302.96 258.58,306.18 272.30,285.00
             275.32,280.33 277.19,276.15 279.19,271.00
             279.19,271.00 288.29,242.00 288.29,242.00
             288.99,239.54 290.99,233.58 289.81,231.31
             288.54,228.89 285.32,229.08 283.00,229.00
             283.00,229.00 295.35,213.00 295.35,213.00
             295.35,213.00 302.37,187.00 302.37,187.00
             302.37,187.00 315.00,139.00 315.00,139.00
             303.59,141.77 295.85,137.74 281.00,143.09
             277.54,144.33 273.91,146.28 271.00,148.53
             258.03,158.54 255.93,170.69 256.00,186.00
             256.05,195.69 258.00,199.16 260.00,208.00
             260.00,208.00 233.00,217.00 233.00,217.00
             229.51,207.52 229.89,202.81 230.00,193.00
             230.09,185.78 231.51,179.67 234.21,173.00
             238.09,163.40 244.12,156.08 252.00,149.44
             282.74,123.54 317.66,126.00 355.00,126.00
             355.00,126.00 341.43,140.17 341.43,140.17
             341.43,140.17 334.13,168.00 334.13,168.00
             334.13,168.00 322.00,214.00 322.00,214.00
             322.00,214.00 386.00,214.00 386.00,214.00 Z" />
  <filter id="dropshadow" height="130%">
    <feGaussianBlur in="SourceAlpha" stdDeviation="3"/> <!-- stdDeviation is how much to blur -->
    <feOffset dx="2" dy="2" result="offsetblur"/> <!-- how much to offset -->
    <feComponentTransfer>
      <feFuncA type="linear" slope="0.5"/> <!-- slope is the opacity of the shadow -->
    </feComponentTransfer>
    <feMerge>
      <feMergeNode/> <!-- this contains the offset blurred image -->
      <feMergeNode in="SourceGraphic"/> <!-- this contains the element that the filter is applied to -->
    </feMerge>
  </filter>
</svg>
